<svg xmlns="http://www.w3.org/2000/svg" width="267.8" height="15"><path d="M85.929 7.618c0 4.184-3.94 7.382-7.841 7.382s-7.82-3.112-7.82-7.3S74.186.317 78.088.317s7.841 3.117 7.841 7.301zm-3.264.108c0-3.6-2.063-6.464-4.577-6.464-2.493 0-4.556 2.735-4.556 6.333s2.063 6.343 4.556 6.343c2.514.001 4.577-2.613 4.577-6.211zm91.985-.108c0 4.184-3.94 7.382-7.841 7.382s-7.82-3.112-7.82-7.3 3.918-7.383 7.82-7.383 7.841 3.117 7.841 7.301zm-3.264.108c0-3.6-2.063-6.464-4.577-6.464-2.493 0-4.556 2.735-4.556 6.333s2.063 6.343 4.556 6.343c2.514.001 4.576-2.613 4.576-6.211zm-16.232 6.288c-1.463 0-2.01-1.774-2.01-1.774L152.014.383a.3.3 0 0 0-.445-.243 5.443 5.443 0 0 1-2.529.61c-.939 0-2.892-.03-2.892-.03v.718l1.143.041c.587.043 1.336.31 1.044 1.153-.333.963-1.57 4.31-2.278 6.208a1.961 1.961 0 0 1-1.484-1.326L142.11.603a.266.266 0 0 0-.355-.159 5.5 5.5 0 0 1-2.128.333c-1.2 0-2.5-.022-3.17-.043v.718l1.4.065c.587.043 1.044.261 1.044 1.153l-1.2 9.789c-.131 1.022-.283 1.5-1.153 1.545l-1.284.043v.74c.87-.022 2.045-.044 2.958-.044.892 0 1.849.022 2.958.044v-.762a2.679 2.679 0 0 1-2.293-1.806l1.122-9.527 4.394 12.116h.435l4.546-12.116 1 9.68c.022.239.044.457.044.631 0 .8-.283.957-1.045 1l-1.16.043v.74c.957-.022 2.422-.044 3.619-.044 1.218 0 2.414.022 3.307.044v-.772zm-50.904-.04a4.183 4.183 0 0 1-2.024-1.409l-3.155-4.664a3.878 3.878 0 0 0 3.13-3.669c0-2.35-2.057-3.919-5.929-3.919-1.479 0-3.18.439-5.4.439-.348 0-.653 0-1-.022v.74l1 .065c.957.087 1.044.239 1.044 1.849v8.745c0 1.631-.087 1.784-1.044 1.849l-1.015.065v.74c.914-.022 2.234-.044 3.43-.044 1.174 0 2.306.022 3.219.044v-.74h-.022v-.02a2.129 2.129 0 0 1-1.89-1.492v-4.36H96.5l3.878 6.617c1.228-.022 1.114-.044 2.232-.044 1.14 0 1.135.022 2.253.044v-.745zm-9.662-8.449v-.776c0-1.2.016-2.061.064-3.128 0 0 .87-.065 1.37-.065 1.849 0 3.241.87 3.241 2.85 0 1.849-.958 3-2.018 3a2.651 2.651 0 0 1-2.657-1.881zm-50.435 8.491a2.292 2.292 0 0 1-2.027-1.613l-.035-4.034c5.069 1.284 7.646-1.273 7.646-3.806 0-2.35-2.057-4.255-5.929-4.255-1.479 0-3.18.439-5.4.439-.348 0-.652 0-1-.022v.74l1 .065c.957.087 1.045.239 1.045 1.849v8.745c0 1.631-.087 1.784-1.045 1.849l-1.015.065v.74c.913-.022 2.233-.044 3.43-.044 1.174 0 2.959.022 3.873.044v-.74s-.306-.022-.543-.022zm-2.028-8.159V4.745c0-1.2.016-2.061.064-3.128 0 0 .87-.065 1.371-.065a3.05 3.05 0 0 1 3.241 3.186c0 1.849-.9 2.924-2.018 3a2.541 2.541 0 0 1-2.658-1.877zm79.006 4.598c-1.014 2.873-2.13 3.425-4.189 3.425-1.478 0-3.178-.972-3.178-2.3V7.936l2.71.043c.716.021.845.455.932 1.539l.043.585h.694c-.022-.954-.066-1.756-.066-2.558s.044-1.6.066-2.536h-.694l-.043.585c-.087 1.084-.216 1.5-.932 1.517l-1.275.021c-.827-.12-1.315-1.359-1.431-1.693a85.85 85.85 0 0 1 .084-3.639 19 19 0 0 1 2.233-.13c2.645 0 3.444.664 4.095 2.854l.542-.108c-.159-1.136-.243-2.868-.316-4-.023-.365-.251-.393-.6-.219-1.054.52-3.351.57-5.981.605-2.874.038-4.763-.113-4.763-.113l-.014.753 1 .027c.954.087 1.032.331 1.032 1.935v8.714c0 1.626-.087 1.778-1.04 1.843l-.889.065v.737c1.344-.022 3.143-.043 5.2-.043s4.4.021 6.764.043c.108-.954.517-3.577.647-4.206zm-109.046 0c-1.014 2.873-2.13 3.425-4.189 3.425-1.478 0-3.178-.972-3.178-2.3V7.936l2.709.043c.716.021.846.455.932 1.539l.043.585h.694c-.022-.954-.065-1.756-.065-2.558s.043-1.6.065-2.536h-.693l-.043.585c-.086 1.084-.216 1.5-.932 1.517l-1.275.021c-.827-.12-1.315-1.359-1.432-1.693A85.85 85.85 0 0 1 4.805 1.8a19 19 0 0 1 2.233-.13c2.645 0 3.444.664 4.095 2.854l.542-.108c-.159-1.136-.243-2.868-.316-4-.024-.365-.251-.393-.6-.219-1.054.52-3.351.57-5.981.605C1.904.84.015.689.015.689l-.013.753 1 .027c.954.087 1.033.331 1.033 1.935v8.714c0 1.626-.087 1.778-1.041 1.843l-.891.075v.737c1.344-.022 3.143-.043 5.2-.043s4.4.021 6.763.043c.108-.954.517-3.577.647-4.206zm20.64 3.575a3.625 3.625 0 0 1-2.245-1.551l-4.018-5.565 2.97-3.945c.474-.659.8-1.407 1.705-1.585.369-.073.586-.108.586-.108s.036-.263.091-.73c.037-.31-.233-.234-.7-.12a9.362 9.362 0 0 1-2.672.311c-1.04 0-1.878-.034-1.878-.034l.009.745 1.519.027a.485.485 0 0 1 .5.5 1.731 1.731 0 0 1-.39.91l-1.987 2.754a2.226 2.226 0 0 1-1.3-.871l-1.352-1.882a1.811 1.811 0 0 1-.455-.932.351.351 0 0 1 .257-.375 6.848 6.848 0 0 1 1.112-.155s.015-.514.023-.876c.005-.214-.214-.22-.355-.159a5.988 5.988 0 0 1-2.133.374 61.515 61.515 0 0 1-4.518-.044l-.007.728 1.374.013c.846.022 1.234.883 1.645 1.49l3.382 4.725-3.8 4.989a2.711 2.711 0 0 1-2.048 1.341l-.828.043v.716a99.055 99.055 0 0 1 2.714-.043c.91 0 1.842.022 2.666.043v-.716c-.926 0-1.19-1.365-1.19-1.365l3.076-4.205 3.013 4.227c.282.39.5.6.455.91-.03.215-.326.325-.759.369l-1.087.065v.716c.91-.022 2.3-.043 3.494-.043s2.406.022 3.381.043v-.716zM53.806.761l.037.7 1.03.072c.954.065.983.247.983 1.872v8.714c0 1.626-.087 1.778-1.04 1.842l-1.01.065v.737c1.344-.022 3.2-.043 5.193-.043s4.5.022 6.707.043c.219-1.077.579-3.154.84-4.216l-.65-.109c-1.019 2.992-2.494 3.436-4.423 3.436-1.842 0-2.907-2.16-2.907-2.744V3.403c0-1.626.1-1.76 1.046-1.909a5.459 5.459 0 0 1 1.092-.1s.067-.547.094-.94c.009-.123-.14-.22-.438-.128-1.669.519-5.187.426-6.554.435zm155.33 13.263v.737c-.911-.022-2.3-.043-3.49-.043-1.171 0-2.614.022-3.525.043v-.737l.865-.065c.8 0 1.293-.217 1.293-1.843v-6.87c0-2.428-.043-3.815-.043-3.815h-1.821c-1.972 0-2.493 1.235-3.36 3.642l-.563-.109c.152-1.235.281-3.035.368-4.639a26.54 26.54 0 0 0 4.118.216h5.354a26.55 26.55 0 0 0 4.119-.216c.065 1.6.216 3.4.368 4.639l-.563.109c-.867-2.406-1.409-3.642-3.382-3.642h-1.821s-.043 1.387-.043 3.815v6.969s.887 1.809 2.126 1.809zm19.645-1.821l-3.028-8-1.449-4.025a.263.263 0 0 0-.383-.138 4.506 4.506 0 0 1-2.223.676c-.9 0-.96 0-1.6-.044v.745s.846.024 1.263.066c.632.063 1.02.349.8.949l-4.058 9.941c-.554 1.357-.657 1.513-1.633 1.567l-.545.027v.8a64.658 64.658 0 0 1 2.389-.055c.792 0 1.662.014 2.69.041v-.781h-.18a1.979 1.979 0 0 1-1.6-1.474l1.142-2.962h4.45l1.13 3a2.707 2.707 0 0 1 .223.837c0 .462-.332.573-1.228.6l-.744.007v.788c1.054-.027 2.557-.055 3.716-.055 1.134 0 2.228 0 2.914.027v-.755c-1.221-.008-2.046-1.782-2.046-1.782zm-5.228-3.5a2.241 2.241 0 0 1-2.3-1.426l1.399-3.646 1.869 5.073zm-30.92-6.947c-.221.187-.2.881-.2 3.677v9.327h-.619l-9.587-10.65.022 6c0 1.48.07 2.372.07 2.372a2.469 2.469 0 0 0 2.379 1.531v.757a116.64 116.64 0 0 0-2.775-.043c-.953 0-2.692.022-3.6.043v-.737l1.717-.065c.455-.043.694-.087.846-.282.173-.239.217-.8.217-3.6v-7.24c-.845-.889-1.038-1.41-2.779-1.41V.71c.376.022 1.4.063 1.873.063a4.378 4.378 0 0 0 2.32-.328.4.4 0 0 1 .455.138 261.205 261.205 0 0 0 6.253 7.433 4.908 4.908 0 0 0 2.062 1.34l-.017-3.928c0-2.8-.022-3.338-.2-3.577a1.032 1.032 0 0 0-.845-.357c-.674-.03-2.059-.056-2.059-.056V.71s1.529.018 2.57.018a5.835 5.835 0 0 0 2.5-.361c.4-.146.675-.185.633.218-.048.467-.1.859-.1.859a1.935 1.935 0 0 0-1.136.312zM242.998.708v.735s1.084.026 1.758.056a1.038 1.038 0 0 1 .836.347c.17.241.192.795.192 3.571v3.577c0 3.056-1.713 4.444-3.967 4.444-2.428 0-3.858-1.539-3.858-4.465V3.121c.015-1.353.152-1.533 1.044-1.619.723-.07.5-.062.552-.058 0-.008.051-.518.088-.945.014-.17-.083-.22-.381-.128-1.67.52-4.892.365-6.27.342v.753s1.036.022 1.293.04a1.187 1.187 0 0 1 .689.21c.215.191.263.564.272 1.308v6.443c0 3.945 3.035 5.506 5.853 5.506 3.36 0 5.853-1.973 5.853-5.571V5.418c0-2.8 0-3.388.175-3.627l.007-.009a.265.265 0 0 1 .026-.026 2.29 2.29 0 0 1 1.263-.313s.03-.409.1-.874c.049-.34-.361-.122-.95-.028a22.647 22.647 0 0 1-4.575.167zm24.795 13.288a4.638 4.638 0 0 1-2.456-1.408l-5.134-5.5 4.132-4.233c.9-.82 1.123-1.127 1.721-1.257a7.473 7.473 0 0 1 .95-.159l.114-.834c.04-.31-.182-.419-.775-.206a8 8 0 0 1-2.636.342c-1.175 0-2.214.008-2.214.008v.69s1.206.011 1.547.021c.505.014.554.225.554.42 0 .239-.434.542-.8.889l-3.766 3.746c-.841 0-1.545-1.426-1.545-1.426l-.007-2.34c.042-1.015.231-1.178 1.035-1.259a5.634 5.634 0 0 1 .774-.057l.069-.847c.014-.177-.177-.3-.593-.185-1.684.471-5.173.347-6.539.353v.687s1.179.029 1.572.048c.955.047.963.284.963 1.91v8.714c0 1.626-.086 1.778-1.04 1.842l-1.494.065v.737h.138l.255-.006c1.041-.015 2.814-.03 4.214-.035.99.006 2.028.023 2.765.041v-.737c-.943 0-2.111-1.536-2.111-1.536v-4.4l4.942 5.219a.683.683 0 0 1 .173.412c0 .152-.109.239-.347.26l-1 .043v.737c1.214-.022 2.341-.043 3.447-.043 1.127 0 1.991.021 3.1.043z" fill="#897c6e"/></svg>