<svg xmlns="http://www.w3.org/2000/svg" viewBox="0 0 40.68 83.88" aria-label="Marram’s logo"><path d="M21.36 83.55h-5.92c-1 0-2.07 0-3.11.06l-3.08.05q-1.63 0-3.27.06l-3.27.06h-.5a.13.13 0 0 1-.12-.13v-.39c.05-.74.09-1.48.14-2.22s.08-1.21.13-1.82a1.21 1.21 0 0 1 0-.19c0-.61.06-1.22.1-1.83s.11-1.47.15-2.21c.34-.86.67-1.72 1-2.57.53-1.33 1.06-2.66 1.58-4s1.13-2.85 1.7-4.27c.4-1 .81-2 1.22-3.07a.24.24 0 0 1 0-.08 1.08 1.08 0 0 1 .35-.49c.78-.65 1.55-1.31 2.32-2 .58-.49 1.16-1 1.73-1.48l3.22-.68 2.82-.59.87-.19a1.11 1.11 0 0 1 .65 0l1.29.31L25.2 57l3 .71 3.31 2.51c.42.33.85.65 1.28 1L35.53 64c.43.46.86.91 1.3 1.36.53 1 1.08 1.92 1.64 2.87.33 1.46.67 2.9 1 4.35.24 1 .47 2 .7 3a8.41 8.41 0 0 1 .19.87c0 .93.1 1.87.14 2.8 0 .39 0 .78.05 1.17 0 .76.08 1.53.11 2.29v.35a.11.11 0 0 1-.1.1h-.27l-3.19.06H26.63l-4.44.09h-.85zM0 32.47a.6.6 0 0 1 .3-.07l1-.11 1.2-.12.85-.09L4.49 32l.93-.1 2.2-.22 1.9-.2 1.08-.11 1.24-.12.78-.08 1.89-.17c.38 0 .75-.08 1.12-.12l1.13-.11L18 30.6l.81-.08c.9-.09 1.81-.17 2.71-.27l2.59-.25 1.94-.19c.35 0 .69-.08 1-.12l.78-.07 1.17-.13 1.16-.12.85-.09 1.94-.19 2.63-.28 1.2-.11.78-.07h.15a.16.16 0 0 1 .11.1.17.17 0 0 1 0 .07l.09 2c0 .75.09 1.5.12 2.25s.08 1.74.12 2.61l-.27 1.88-.3 1.93c-.1.66-.21 1.33-.32 2l-.3 2c-.11.66-.21 1.31-.32 2v.27a.55.55 0 0 1-.12.28c-.34.52-.69 1-1 1.55-.14.21-.29.42-.42.64l-1.61.99-3 2c-.58.4-1.17.8-1.74 1.21-1.06.24-2.11.5-3.17.75l-3.22.76-1.17.29-1.57.38-3.44-.78c-.54-.13-1.08-.26-1.62-.36-1.55-1.08-3.13-2.11-4.62-3.26a5 5 0 0 0-.91-.61A2.87 2.87 0 0 1 7.6 48.2a6.88 6.88 0 0 0-1.7-2.13 5.79 5.79 0 0 1-1.25-1.43 2.47 2.47 0 0 1-.24-.49c-.3-.78-.6-1.55-.89-2.33-.39-1-.77-2-1.15-3-.57-1.5-1.13-3-1.7-4.48-.2-.53-.41-1.06-.61-1.6a.38.38 0 0 1-.06-.27zm11.5-13.9l.58-.86 1.5-2.08.24-.36a1.06 1.06 0 0 1 .38-.38l1.19-.73.57-.33 1.33-.74 1.85-1 .1-.05a.53.53 0 0 1 .41 0l.91.23a20.64 20.64 0 0 0 2.35.42l.55.09h.31a.84.84 0 0 1 .41.11c.43.26.87.51 1.31.76l1.57.94c.3.18.27.14.38.46s.28.86.43 1.29c.23.66.46 1.31.71 2-.18.7-.35 1.4-.52 2.1l-.69 2.79a.61.61 0 0 0 0 .11A1.3 1.3 0 0 1 27 24c-.15.14-.28.31-.42.46s-.5.54-.73.82l-2.39 1.3-1.4.76c-.57 0-1.15 0-1.72.05l-1.2.05h-.82q-.86 0-1.71.06c-.23-.19-.47-.35-.7-.53l-1.2-.93-.24-.19a.83.83 0 0 1-.26-.33c-.15-.4-.31-.8-.47-1.2l-1.53-3.82-.61-1.5a1.06 1.06 0 0 1-.1-.43zm6.83-7.71l-.55-.37-1.32-1-.23-.15a.69.69 0 0 1-.23-.19l-.47-.76-.22-.39-.47-.84L14.21 6v-.07a.38.38 0 0 1 0-.26c.08-.3.15-.6.23-.9a5.25 5.25 0 0 0 .17-1 4 4 0 0 1 .07-.48 1.5 1.5 0 0 0 0-.2.5.5 0 0 1 .08-.26l.43-.83.59-1c.12-.2.1-.17.3-.24l.82-.31c.42-.14.83-.29 1.25-.45l1.33.33 1.78.44h.07a.83.83 0 0 1 .45.24 3.71 3.71 0 0 0 .29.27l.41.36a1.39 1.39 0 0 1 .21.27l.72 1.35.49.89v1.09L24 6v1.46a.33.33 0 0 1-.07.25c-.09.11-.17.23-.25.34l-.59.76L23 9a.6.6 0 0 1-.22.16l-1 .41c-.57.22-1.13.44-1.69.68l-1.4.55a.84.84 0 0 1-.36.06z"/></svg>