<svg xmlns="http://www.w3.org/2000/svg" viewBox="0 0 150 19.48" aria-label="Marram"><path d="M25.53 18.2a2.76 2.76 0 0 1-1.88-2.63L22.17.21a.23.23 0 0 0-.34-.21 7.66 7.66 0 0 1-3.5.79c-1.32.05-3.9.1-3.9.1v.82h1.54c1.07 0 1.75.47 1.37 1.59-.53 1.5-2.74 7.43-3.46 9.35-.44 0-.78-.83-.94-1.25L9.07.53A.29.29 0 0 0 8.7.36 10.94 10.94 0 0 1 5 .92C3.22 1 2.44 1 1.54.92v.71l1.9.16c1 .1 1.47.51 1.29 2.08-.39 3.48-1.5 12.5-1.5 12.5-.17 1.36-.41 2-1.53 2.29C1 18.84 0 19 0 19v.46c1.15 0 2.71-.06 3.93-.06s2.39 0 3.86.06l-.11-1.2H6.54c-1.51 0-1.81-1.43-1.68-2.53.38-3.18 1.43-12.32 1.43-12.32l5.83 16h.58l6-16 1.33 12.85c0 .31.06.6.06.83 0 1.07-.34 1.41-1.33 1.64-.64.15-1.6.27-1.6.27v.46c1.27 0 3.22-.06 4.81-.06s3.2 0 4.38.06v-1.2a6.22 6.22 0 0 1-.82-.06zm123.61 0a2.74 2.74 0 0 1-1.87-2.63L145.79.21a.23.23 0 0 0-.34-.18 7.74 7.74 0 0 1-3.5.79c-1.32.05-3.9.1-3.9.1v.82h1.53c1.07 0 1.76.47 1.37 1.59-.52 1.5-2.73 7.43-3.45 9.35-.44 0-.79-.83-.94-1.25L132.69.53a.29.29 0 0 0-.37-.17 11 11 0 0 1-3.67.56c-1.82.06-2.59 0-3.49 0v.71l1.89.16c1 .1 1.47.51 1.3 2.08-.39 3.48-1.5 12.5-1.5 12.5-.17 1.36-.41 2-1.53 2.29-.73.18-1.7.34-1.7.34v.46c1.15 0 2.71-.06 3.92-.06s2.4 0 3.87.06l-.11-1.2h-1.15c-1.51 0-1.8-1.43-1.68-2.53.39-3.21 1.44-12.35 1.44-12.35l5.83 16h.58l6-16 1.33 12.85c0 .31.06.6.06.83 0 1.07-.35 1.41-1.33 1.64-.64.15-1.6.27-1.6.27v.46c1.27 0 3.21-.06 4.8-.06s3.21 0 4.39.06v-1.2a6.33 6.33 0 0 1-.83-.03zm-99.47.05c-1.08 0-1.44-.4-1.9-1.59L43.56 5.48 41.63.13a.2.2 0 0 0-.3-.09 5.56 5.56 0 0 1-2.61.8c-1.53.1-2.67.08-2.67.08v.82h1.7c1 0 1.33.59 1 1.39l-5.31 13c-.73 1.8-1.17 2.69-2.32 2.8h-.78v.46h6.87v-1h-.89c-2.34.13-1.72-1.3-1.33-2.41l1.39-3.55h5.9l1.5 4a3.71 3.71 0 0 1 .3 1.11c0 .61-.44.76-1.63.8h-1v1h4.91c1.54 0 3 0 3.87.06v-1.15zm-11.11-6.8c-1.24 0-1.1-1.42-1.07-1.65l1.95-5.08 2.48 6.73zm81.23 6.8c-1.09 0-1.45-.4-1.91-1.59l-4.21-11.18-1.93-5.35a.2.2 0 0 0-.3-.09 5.56 5.56 0 0 1-2.61.8c-1.53.1-2.67.08-2.67.08v.82h1.69c1 0 1.33.59 1 1.39l-5.32 13c-.73 1.8-1.17 2.69-2.32 2.8h-.78v.46h6.87v-1h-.89c-2.34.13-1.72-1.3-1.33-2.41l1.39-3.55h5.9l1.5 4a3.71 3.71 0 0 1 .3 1.11c0 .61-.44.76-1.63.8h-1v1h4.91c1.54 0 3 0 3.87.06v-1.15zm-11.12-6.8c-1.24 0-1.1-1.42-1.07-1.65l2-5.08 2.4 6.73zM73 18.08a4.32 4.32 0 0 1-2.09-1.58l-4.54-6.18c2.13-.61 4.48-2.09 4.48-4.77 0-3.12-3.62-5.69-8.71-5a46.57 46.57 0 0 1-7.61.33v.82l1.36.09c1.27.12 1.38.74 1.38 2.88v10.82c0 2.16-.07 3.31-1.37 3.42l-1.37.1v.46h8.83v-1l-.88-.07c-1.06-.12-1.66-.52-1.66-2.63V11H63l5.47 8.48c1.63 0 1.48-.06 3-.06h2.83v-1.08a12.54 12.54 0 0 1-1.3-.26zm-9-8.14h-1.41a1.66 1.66 0 0 1-1.82-1.69v-.13c0-2.77-.06-4.29 0-6.22 0 0 1.23-.23 1.89-.27A3.78 3.78 0 0 1 67 5.71c0 2.45-1.63 4.22-3 4.23zm32.32 8.14a4.32 4.32 0 0 1-2.09-1.58l-4.54-6.18c2.13-.61 4.48-2.09 4.48-4.77 0-3.12-3.62-5.69-8.71-5a46.57 46.57 0 0 1-7.61.33v.82l1.36.09c1.27.12 1.38.74 1.38 2.88v10.82c0 2.16-.06 3.31-1.37 3.42l-1.37.1v.46h8.83v-1l-.87-.07c-1.06-.12-1.67-.52-1.67-2.63V11h2.22l5.47 8.48c1.63 0 1.48-.06 3-.06h2.82v-1.08a13.11 13.11 0 0 1-1.33-.26zm-9-8.14H86a1.66 1.66 0 0 1-1.82-1.69v-.13c0-2.77-.06-4.29 0-6.22 0 0 1.22-.23 1.88-.27a3.78 3.78 0 0 1 4.3 4.08c-.01 2.45-1.62 4.22-3.03 4.23z"/></svg>