<svg xmlns="http://www.w3.org/2000/svg" width="290.365" height="14.25"><path d="M210.161 11.781l-2.923-7.725-1.4-3.886a.254.254 0 0 0-.37-.134 4.341 4.341 0 0 1-2.146.653c-.87 0-.927 0-1.544-.042v.719s.817.023 1.22.064c.61.061.984.337.769.916l-3.918 9.6c-.535 1.31-.634 1.461-1.577 1.513l-.526.025v.769a64.753 64.753 0 0 1 2.306-.053c.765 0 1.6.014 2.6.04v-.754h-.174a1.912 1.912 0 0 1-1.546-1.423l1.1-2.86h4.295l1.091 2.9a2.609 2.609 0 0 1 .216.808c0 .446-.321.553-1.185.579l-.719.007v.76a161.97 161.97 0 0 1 3.588-.053c1.1 0 2.151 0 2.814.026v-.729c-1.171-.007-1.971-1.72-1.971-1.72zm-5.047-3.38a2.162 2.162 0 0 1-2.22-1.377l1.345-3.52 1.8 4.9zm-100.572 3.38l-2.923-7.725-1.4-3.886a.254.254 0 0 0-.37-.134 4.341 4.341 0 0 1-2.146.653c-.87 0-.927 0-1.544-.042v.719s.817.023 1.22.064c.61.061.984.337.769.916l-3.918 9.6c-.535 1.31-.634 1.461-1.577 1.513l-.526.025v.769a64.753 64.753 0 0 1 2.306-.053c.765 0 1.6.014 2.6.04v-.754h-.174a1.912 1.912 0 0 1-1.546-1.423l1.1-2.86h4.3l1.09 2.9a2.609 2.609 0 0 1 .216.808c0 .446-.32.553-1.185.579l-.719.007v.76a161.97 161.97 0 0 1 3.588-.053c1.1 0 2.151 0 2.814.026v-.729c-1.179-.007-1.975-1.72-1.975-1.72zm-5.047-3.38a2.162 2.162 0 0 1-2.22-1.377l1.345-3.52 1.8 4.9zm165.953 3.38l-2.924-7.725-1.4-3.886a.253.253 0 0 0-.369-.134 4.348 4.348 0 0 1-2.146.653c-.871 0-.927 0-1.544-.042v.719s.817.023 1.219.064c.61.061.985.337.769.916l-3.918 9.6c-.534 1.31-.634 1.461-1.576 1.513l-.526.025v.769a64.812 64.812 0 0 1 2.307-.053c.764 0 1.6.014 2.6.04v-.754h-.179a1.912 1.912 0 0 1-1.545-1.423l1.1-2.86h4.3l1.091 2.9a2.6 2.6 0 0 1 .215.808c0 .446-.32.553-1.185.579l-.718.007v.76c1.017-.025 2.468-.053 3.587-.053 1.1 0 2.152 0 2.814.026v-.729c-1.176-.007-1.972-1.72-1.972-1.72zm-5.048-3.38a2.16 2.16 0 0 1-2.219-1.377l1.345-3.52 1.8 4.9zm-66.847 5.113v-.02c-1.413 0-1.921-1.713-1.921-1.713L190.542.334a.294.294 0 0 0-.429-.234 5.264 5.264 0 0 1-2.442.589c-.907 0-2.792-.029-2.792-.029v.694l1.1.039c.567.042 1.289.3 1.008 1.113-.322.93-1.516 4.161-2.2 5.994a1.892 1.892 0 0 1-1.43-1.291L180.978.537a.255.255 0 0 0-.342-.153 5.319 5.319 0 0 1-2.054.321c-1.156 0-2.409-.021-3.06-.042v.693l1.351.063c.567.042 1.008.252 1.008 1.113l-1.155 9.45c-.126.987-.273 1.449-1.113 1.491l-1.239.042v.714c.84-.021 1.974-.042 2.856-.042.861 0 1.785.021 2.856.042v-.735a2.586 2.586 0 0 1-2.214-1.744l1.084-9.2 4.242 11.7h.42l4.389-11.7.966 9.345c.021.231.042.441.042.609 0 .777-.273.924-1.008.966l-1.12.042v.714c.924-.021 2.338-.042 3.493-.042 1.177 0 2.331.021 3.193.042v-.714zm-174.379 0v-.02c-1.413 0-1.921-1.713-1.921-1.713L16.161.334A.294.294 0 0 0 15.732.1a5.264 5.264 0 0 1-2.442.589c-.907 0-2.792-.029-2.792-.029v.694l1.1.039c.567.042 1.289.3 1.008 1.113-.322.93-1.516 4.161-2.2 5.994a1.9 1.9 0 0 1-1.431-1.291L6.597.537a.255.255 0 0 0-.342-.153 5.319 5.319 0 0 1-2.054.321c-1.156 0-2.409-.021-3.06-.042v.693l1.351.063c.567.042 1.008.252 1.008 1.113l-1.155 9.45c-.126.987-.273 1.449-1.113 1.491l-1.239.042v.714c.84-.021 1.974-.042 2.856-.042.861 0 1.785.021 2.856.042v-.735a2.586 2.586 0 0 1-2.214-1.744l1.084-9.2 4.242 11.7h.42l4.389-11.7.966 9.345c.021.231.042.441.042.609 0 .777-.273.924-1.008.966l-1.12.042v.714c.924-.021 2.338-.042 3.493-.042 1.177 0 2.331.021 3.193.042v-.714zm271.171 0v-.02c-1.413 0-1.921-1.713-1.921-1.713L287.334.334a.294.294 0 0 0-.429-.234 5.261 5.261 0 0 1-2.442.589c-.907 0-2.792-.029-2.792-.029v.694l1.1.039c.567.042 1.29.3 1.008 1.113-.321.93-1.515 4.161-2.2 5.994a1.892 1.892 0 0 1-1.43-1.291L277.771.537a.257.257 0 0 0-.343-.153 5.317 5.317 0 0 1-2.054.321c-1.155 0-2.409-.021-3.06-.042v.693l1.351.063c.567.042 1.008.252 1.008 1.113l-1.155 9.45c-.126.987-.273 1.449-1.113 1.491l-1.239.042v.714c.84-.021 1.974-.042 2.856-.042.861 0 1.785.021 2.856.042v-.735a2.586 2.586 0 0 1-2.214-1.744l1.084-9.2 4.242 11.7h.42l4.389-11.7.967 9.345c.021.231.042.441.042.609 0 .777-.274.924-1.009.966l-1.12.042v.714a170.77 170.77 0 0 1 3.494-.042c1.176 0 2.331.021 3.192.042v-.714zm-59.803-.064a4.035 4.035 0 0 1-1.955-1.361l-3.046-4.5a3.746 3.746 0 0 0 3.022-3.543c0-2.268-1.986-3.783-5.724-3.783-1.428 0-3.071.423-5.218.423-.336 0-.63 0-.966-.021v.714l.966.063c.924.084 1.008.231 1.008 1.785v8.442c0 1.575-.084 1.722-1.008 1.785l-.98.063v.714c.882-.021 2.156-.042 3.311-.042 1.134 0 2.226.021 3.108.042v-.714h-.021v-.02a2.056 2.056 0 0 1-1.825-1.44V7.848h1.847l3.744 6.388c1.185-.021 1.075-.043 2.155-.043 1.1 0 1.1.022 2.175.043v-.72zm-9.329-8.157v-.75c0-1.16.016-1.989.062-3.019 0 0 .84-.063 1.323-.063 1.785 0 3.13.84 3.13 2.751 0 1.785-.925 2.9-1.949 2.9a2.559 2.559 0 0 1-2.566-1.819zm-58.86 8.157a4.035 4.035 0 0 1-1.955-1.361l-3.046-4.5a3.746 3.746 0 0 0 3.022-3.543c0-2.268-1.986-3.783-5.724-3.783-1.428 0-3.071.423-5.218.423-.336 0-.63 0-.966-.021v.714l.966.063c.924.084 1.008.231 1.008 1.785v8.442c0 1.575-.084 1.722-1.008 1.785l-.98.063v.714c.882-.021 2.156-.042 3.311-.042 1.134 0 2.226.021 3.108.042v-.714h-.021v-.02a2.056 2.056 0 0 1-1.825-1.44V7.848h1.851l3.744 6.388c1.185-.021 1.075-.043 2.155-.043 1.1 0 1.1.022 2.175.043v-.72zm-9.328-8.157v-.75c0-1.16.016-1.989.062-3.019 0 0 .84-.063 1.323-.063 1.785 0 3.13.84 3.13 2.751 0 1.785-.925 2.9-1.949 2.9a2.558 2.558 0 0 1-2.566-1.819zM88.22 13.45a4.035 4.035 0 0 1-1.955-1.361l-3.046-4.5a3.745 3.745 0 0 0 3.021-3.543c0-2.268-1.985-3.783-5.723-3.783-1.429 0-3.071.423-5.218.423-.336 0-.63 0-.966-.021v.714l.966.063c.924.084 1.008.231 1.008 1.785v8.442c0 1.575-.084 1.722-1.008 1.785l-.98.063v.714c.882-.021 2.156-.042 3.311-.042 1.134 0 2.226.021 3.108.042v-.714h-.021v-.02a2.056 2.056 0 0 1-1.825-1.44V7.848h1.851l3.744 6.388c1.185-.021 1.075-.043 2.154-.043 1.1 0 1.1.022 2.176.043v-.72zm-9.329-8.157v-.75c0-1.16.016-1.989.062-3.019 0 0 .84-.063 1.323-.063 1.785 0 3.129.84 3.129 2.751 0 1.785-.924 2.9-1.948 2.9a2.559 2.559 0 0 1-2.566-1.819zM117.108.194a10.65 10.65 0 0 0-1.293.1c-1.23.106-2.868.38-4.6.38-.335 0-.63 0-.965-.021v.714l.965.063c.924.084 1.009.231 1.009 1.785v8.442c0 1.575-.085 1.722-1.009 1.785l-.98.063v.714c.882-.021 2.39-.042 3.545-.042 1.134 0 2.226.021 3.108.042v-.013l.184.013c4.547 0 8.119-2.8 8.119-7.1-.005-4.172-3.43-6.925-8.083-6.925zm.528 13.073a3.186 3.186 0 0 1-2.6-1.935V1.807a16.668 16.668 0 0 1 1.782-.107c2.933 0 4.714 1.933 4.714 5.836-.001 3.343-1.517 5.731-3.896 5.731zm131.352.183a4.029 4.029 0 0 1-1.954-1.361l-3.047-4.5a3.745 3.745 0 0 0 3.022-3.543c0-2.268-1.986-3.783-5.724-3.783-1.428 0-3.071.423-5.218.423-.335 0-.63 0-.965-.021v.714l.965.063c.924.084 1.009.231 1.009 1.785v8.442c0 1.575-.085 1.722-1.009 1.785l-.98.063v.714c.882-.021 2.157-.042 3.312-.042 1.134 0 2.226.021 3.108.042v-.714h-.021v-.02a2.055 2.055 0 0 1-1.825-1.44V7.848h1.851l3.744 6.388c1.185-.021 1.076-.043 2.155-.043 1.1 0 1.1.022 2.175.043v-.72zm-9.328-8.157v-.75c0-1.16.015-1.989.061-3.019 0 0 .841-.063 1.324-.063 1.785 0 3.129.84 3.129 2.751 0 1.785-.925 2.9-1.949 2.9a2.558 2.558 0 0 1-2.564-1.819zM37.948 7.118c0 4.109-3.811 7.132-7.728 7.132s-7.729-2.937-7.729-7.047S26.303.071 30.22.071s7.728 2.939 7.728 7.047zm-3.32.107c0-3.534-1.9-6.3-4.408-6.3-2.463 0-4.408 2.643-4.408 6.177s2.051 6.3 4.408 6.3c2.4-.002 4.408-2.643 4.408-6.177zm110.124-.107c0 4.109-3.812 7.132-7.729 7.132s-7.729-2.937-7.729-7.047 3.812-7.132 7.729-7.132 7.729 2.939 7.729 7.047zm-3.321.107c0-3.534-1.9-6.3-4.408-6.3-2.463 0-4.408 2.643-4.408 6.177s2.051 6.3 4.408 6.3c2.4-.002 4.408-2.643 4.408-6.177zm-98.906 5.666l-.309-3.4.618-.1c.7 2.492 2.265 4.072 3.913 4.072a2.319 2.319 0 0 0 2.306-2.375c0-2.883-6.219-2.773-6.219-6.958 0-2.41 2.2-4.058 4.778-4.058a5.683 5.683 0 0 1 3.46 1.092l.309 2.966-.6.061C50.225 2.235 49.113.869 47.569.869a2.223 2.223 0 0 0-2.1 2.264c0 2.719 6.364 2.823 6.364 6.917 0 2.554-2.327 4.2-5.108 4.2a6.923 6.923 0 0 1-4.2-1.359zM69.941.3a25.367 25.367 0 0 1-3.946.208H60.43A25.343 25.343 0 0 1 56.485.3c-.062 1.557-.2 3.477-.344 4.661l.6.1c.913-2.305 1.495-3.571 3.26-3.571h1.715s.042 1.329.042 3.654l.022 6.353c0 1.509-.332 1.891-1.24 1.952l-1.1.063v.714c.882-.021 2.39-.042 3.545-.042 1.134 0 2.969.021 3.851.042l-.009-.755a2.8 2.8 0 0 1-2.153-1.653V5.144c.015-1.914.042-3.654.042-3.654h1.716c1.764 0 2.366 1.266 3.28 3.571l.582-.1A73.357 73.357 0 0 1 69.941.3z" fill="#897c6e"/></svg>