<svg xmlns="http://www.w3.org/2000/svg" viewBox="0 0 150 19.48" role="img" aria-label="Marram"><title>Marram</title><path d="M25.53,18.2a2.76,2.76,0,0,1-1.88-2.63L22.17.21A.23.23,0,0,0,21.83,0a7.66,7.66,0,0,1-3.5.79c-1.32.05-3.9.1-3.9.1v.82l1.54,0c1.07,0,1.75.47,1.37,1.59-.53,1.5-2.74,7.43-3.46,9.35-.44,0-.78-.83-.94-1.25L9.07.53A.29.29,0,0,0,8.7.36,10.94,10.94,0,0,1,5,.92C3.22,1,2.44,1,1.54.92v.71l1.9.16c1,.1,1.47.51,1.29,2.08-.39,3.48-1.5,12.5-1.5,12.5-.17,1.36-.41,2-1.53,2.29C1,18.84,0,19,0,19v.46c1.15,0,2.71-.06,3.93-.06s2.39,0,3.86.06l-.11-1.2s-.61,0-1.14,0c-1.51,0-1.81-1.43-1.68-2.53C5.24,12.55,6.29,3.41,6.29,3.41l5.83,16h.58l6-16,1.33,12.85c0,.31.06.6.06.83,0,1.07-.34,1.41-1.33,1.64-.64.15-1.6.27-1.6.27v.46c1.27,0,3.22-.06,4.81-.06s3.2,0,4.38.06v-1.2A6.22,6.22,0,0,1,25.53,18.2Z"/><path d="M149.14,18.2a2.74,2.74,0,0,1-1.87-2.63L145.79.21a.23.23,0,0,0-.34-.18,7.74,7.74,0,0,1-3.5.79c-1.32.05-3.9.1-3.9.1v.82l1.53,0c1.07,0,1.76.47,1.37,1.59-.52,1.5-2.73,7.43-3.45,9.35-.44,0-.79-.83-.94-1.25L132.69.53a.29.29,0,0,0-.37-.17,11,11,0,0,1-3.67.56c-1.82.06-2.59,0-3.49,0v.71l1.89.16c1,.1,1.47.51,1.3,2.08-.39,3.48-1.5,12.5-1.5,12.5-.17,1.36-.41,2-1.53,2.29-.73.18-1.7.34-1.7.34v.46c1.15,0,2.71-.06,3.92-.06s2.4,0,3.87.06l-.11-1.2s-.61,0-1.15,0c-1.51,0-1.8-1.43-1.68-2.53.39-3.21,1.44-12.35,1.44-12.35l5.83,16h.58l6-16,1.33,12.85c0,.31.06.6.06.83,0,1.07-.35,1.41-1.33,1.64-.64.15-1.6.27-1.6.27v.46c1.27,0,3.21-.06,4.8-.06s3.21,0,4.39.06v-1.2A6.33,6.33,0,0,1,149.14,18.2Z"/><path d="M49.67,18.25c-1.08,0-1.44-.4-1.9-1.59L43.56,5.48,41.63.13a.2.2,0,0,0-.3-.09,5.56,5.56,0,0,1-2.61.8c-1.53.1-2.67.08-2.67.08v.82h1.7c1,0,1.33.59,1,1.39l-5.31,13c-.73,1.8-1.17,2.69-2.32,2.8-.32,0-.78,0-.78,0v.46c.94,0,2.22,0,3.3,0s2.2,0,3.57,0l0-1-.89,0c-2.34.13-1.72-1.3-1.33-2.41l1.39-3.55h5.9l1.5,4a3.71,3.71,0,0,1,.3,1.11c0,.61-.44.76-1.63.8h-1l0,1c1.4,0,3.37,0,4.91,0s3,0,3.87.06V18.25Zm-11.11-6.8c-1.24,0-1.1-1.42-1.07-1.65l1.95-5.08,2.48,6.73Z"/><path d="M119.79,18.25c-1.09,0-1.45-.4-1.91-1.59L113.67,5.48,111.74.13a.2.2,0,0,0-.3-.09,5.56,5.56,0,0,1-2.61.8c-1.53.1-2.67.08-2.67.08l0,.82h1.69c1,0,1.33.59,1,1.39l-5.32,13c-.73,1.8-1.17,2.69-2.32,2.8-.31,0-.78,0-.78,0v.46c.94,0,2.22,0,3.3,0s2.2,0,3.57,0l0-1-.89,0c-2.34.13-1.72-1.3-1.33-2.41l1.39-3.55h5.9l1.5,4a3.71,3.71,0,0,1,.3,1.11c0,.61-.44.76-1.63.8h-1l0,1c1.4,0,3.37,0,4.91,0s3,0,3.87.06V18.25Zm-11.12-6.8c-1.24,0-1.1-1.42-1.07-1.65l2-5.08L112,11.45Z"/><path d="M73,18.08a4.32,4.32,0,0,1-2.09-1.58l-4.54-6.18c2.13-.61,4.48-2.09,4.48-4.77,0-3.12-3.62-5.69-8.71-5a46.57,46.57,0,0,1-7.61.33v.82l1.36.09c1.27.12,1.38.74,1.38,2.88V15.49c0,2.16-.07,3.31-1.37,3.42l-1.37.1v.46c1.21,0,3,0,4.56,0s3.06,0,4.27,0v-1l-.88-.07c-1.06-.12-1.66-.52-1.66-2.63V11H63l5.47,8.48c1.63,0,1.48-.06,3-.06s1.35,0,2.83,0V18.34A12.54,12.54,0,0,1,73,18.08ZM64,9.94H62.59a1.66,1.66,0,0,1-1.82-1.69V8.12c0-2.77-.06-4.29,0-6.22,0,0,1.23-.23,1.89-.27A3.78,3.78,0,0,1,67,5.71C67,8.16,65.37,9.93,64,9.94Z"/><path d="M96.32,18.08a4.32,4.32,0,0,1-2.09-1.58l-4.54-6.18c2.13-.61,4.48-2.09,4.48-4.77,0-3.12-3.62-5.69-8.71-5a46.57,46.57,0,0,1-7.61.33v.82l1.36.09c1.27.12,1.38.74,1.38,2.88V15.49c0,2.16-.06,3.31-1.37,3.42l-1.37.1v.46c1.21,0,3,0,4.56,0s3.06,0,4.27,0v-1l-.87-.07c-1.06-.12-1.67-.52-1.67-2.63V11h2.22l5.47,8.48c1.63,0,1.48-.06,3-.06s1.34,0,2.82,0V18.34A13.11,13.11,0,0,1,96.32,18.08Zm-9-8.14H86a1.66,1.66,0,0,1-1.82-1.69V8.12c0-2.77-.06-4.29,0-6.22,0,0,1.22-.23,1.88-.27a3.78,3.78,0,0,1,4.3,4.08C90.35,8.16,88.74,9.93,87.33,9.94Z"/></svg>
