<svg xmlns="http://www.w3.org/2000/svg" width="290.365" height="14.25" viewBox="0 0 290.365 14.25"><g transform="translate(-47.639 -807)"><path d="M257.8,818.781l-2.923-7.725-1.4-3.886a.254.254,0,0,0-.37-.134,4.341,4.341,0,0,1-2.146.653c-.87,0-.927,0-1.544-.042v.719s.817.023,1.22.064c.61.061.984.337.769.916l-3.918,9.6c-.535,1.31-.634,1.461-1.577,1.513l-.526.025v.769c.685-.025,1.518-.053,2.306-.053.765,0,1.6.014,2.6.04l0-.754h-.174a1.912,1.912,0,0,1-1.546-1.423l1.1-2.86h4.295l1.091,2.9a2.609,2.609,0,0,1,.216.808c0,.446-.321.553-1.185.579l-.719.007v.76c1.018-.025,2.469-.053,3.588-.053,1.1,0,2.151,0,2.814.026v-.729C258.6,820.494,257.8,818.781,257.8,818.781Zm-5.047-3.38a2.162,2.162,0,0,1-2.22-1.377l1.345-3.52,1.8,4.9Z" fill="#897c6e"/><path d="M152.181,818.781l-2.923-7.725-1.4-3.886a.254.254,0,0,0-.37-.134,4.341,4.341,0,0,1-2.146.653c-.87,0-.927,0-1.544-.042v.719s.817.023,1.22.064c.61.061.984.337.769.916l-3.918,9.6c-.535,1.31-.634,1.461-1.577,1.513l-.526.025v.769c.685-.025,1.518-.053,2.306-.053.765,0,1.6.014,2.6.04l0-.754h-.174a1.912,1.912,0,0,1-1.546-1.423l1.1-2.86h4.3l1.09,2.9a2.609,2.609,0,0,1,.216.808c0,.446-.32.553-1.185.579l-.719.007v.76c1.018-.025,2.469-.053,3.588-.053,1.1,0,2.151,0,2.814.026v-.729C152.977,820.494,152.181,818.781,152.181,818.781Zm-5.047-3.38a2.162,2.162,0,0,1-2.22-1.377l1.345-3.52,1.8,4.9Z" fill="#897c6e"/><path d="M313.087,818.781l-2.924-7.725-1.4-3.886a.253.253,0,0,0-.369-.134,4.348,4.348,0,0,1-2.146.653c-.871,0-.927,0-1.544-.042v.719s.817.023,1.219.064c.61.061.985.337.769.916l-3.918,9.6c-.534,1.31-.634,1.461-1.576,1.513l-.526.025v.769c.686-.025,1.518-.053,2.307-.053.764,0,1.6.014,2.6.04l0-.754H305.4a1.912,1.912,0,0,1-1.545-1.423l1.1-2.86h4.3l1.091,2.9a2.6,2.6,0,0,1,.215.808c0,.446-.32.553-1.185.579l-.718.007v.76c1.017-.025,2.468-.053,3.587-.053,1.1,0,2.152,0,2.814.026v-.729C313.883,820.494,313.087,818.781,313.087,818.781Zm-5.048-3.38a2.16,2.16,0,0,1-2.219-1.377l1.345-3.52,1.8,4.9Z" fill="#897c6e"/><path d="M241.192,820.514v-.02c-1.413,0-1.921-1.713-1.921-1.713l-1.09-11.447a.294.294,0,0,0-.429-.234,5.264,5.264,0,0,1-2.442.589c-.907,0-2.792-.029-2.792-.029v.694l1.1.039c.567.042,1.289.3,1.008,1.113-.322.93-1.516,4.161-2.2,5.994a1.892,1.892,0,0,1-1.43-1.291l-2.379-6.672a.255.255,0,0,0-.342-.153,5.319,5.319,0,0,1-2.054.321c-1.156,0-2.409-.021-3.06-.042v.693l1.351.063c.567.042,1.008.252,1.008,1.113l-1.155,9.45c-.126.987-.273,1.449-1.113,1.491l-1.239.042v.714c.84-.021,1.974-.042,2.856-.042.861,0,1.785.021,2.856.042v-.735h0a2.586,2.586,0,0,1-2.214-1.744l1.084-9.2,4.242,11.7h.42l4.389-11.7.966,9.345c.021.231.042.441.042.609,0,.777-.273.924-1.008.966l-1.12.042v.714c.924-.021,2.338-.042,3.493-.042,1.177,0,2.331.021,3.193.042v-.714Z" fill="#897c6e"/><path d="M66.813,820.514v-.02c-1.413,0-1.921-1.713-1.921-1.713L63.8,807.334a.294.294,0,0,0-.429-.234,5.264,5.264,0,0,1-2.442.589c-.907,0-2.792-.029-2.792-.029v.694l1.1.039c.567.042,1.289.3,1.008,1.113-.322.93-1.516,4.161-2.2,5.994a1.9,1.9,0,0,1-1.431-1.291l-2.378-6.672a.255.255,0,0,0-.342-.153,5.319,5.319,0,0,1-2.054.321c-1.156,0-2.409-.021-3.06-.042v.693l1.351.063c.567.042,1.008.252,1.008,1.113l-1.155,9.45c-.126.987-.273,1.449-1.113,1.491l-1.239.042v.714c.84-.021,1.974-.042,2.856-.042.861,0,1.785.021,2.856.042v-.735h0a2.586,2.586,0,0,1-2.214-1.744l1.084-9.2,4.242,11.7h.42l4.389-11.7.966,9.345c.021.231.042.441.042.609,0,.777-.273.924-1.008.966l-1.12.042v.714c.924-.021,2.338-.042,3.493-.042,1.177,0,2.331.021,3.193.042v-.714Z" fill="#897c6e"/><path d="M337.984,820.514v-.02c-1.413,0-1.921-1.713-1.921-1.713l-1.09-11.447a.294.294,0,0,0-.429-.234,5.261,5.261,0,0,1-2.442.589c-.907,0-2.792-.029-2.792-.029v.694l1.1.039c.567.042,1.29.3,1.008,1.113-.321.93-1.515,4.161-2.2,5.994a1.892,1.892,0,0,1-1.43-1.291l-2.378-6.672a.257.257,0,0,0-.343-.153,5.317,5.317,0,0,1-2.054.321c-1.155,0-2.409-.021-3.06-.042v.693l1.351.063c.567.042,1.008.252,1.008,1.113l-1.155,9.45c-.126.987-.273,1.449-1.113,1.491l-1.239.042v.714c.84-.021,1.974-.042,2.856-.042.861,0,1.785.021,2.856.042v-.735h0a2.586,2.586,0,0,1-2.214-1.744l1.084-9.2,4.242,11.7h.42l4.389-11.7.967,9.345c.021.231.042.441.042.609,0,.777-.274.924-1.009.966l-1.12.042v.714c.924-.021,2.339-.042,3.494-.042,1.176,0,2.331.021,3.192.042v-.714Z" fill="#897c6e"/><path d="M278.181,820.45a4.035,4.035,0,0,1-1.955-1.361l-3.046-4.5a3.746,3.746,0,0,0,3.022-3.543c0-2.268-1.986-3.783-5.724-3.783-1.428,0-3.071.423-5.218.423-.336,0-.63,0-.966-.021v.714l.966.063c.924.084,1.008.231,1.008,1.785v8.442c0,1.575-.084,1.722-1.008,1.785l-.98.063v.714c.882-.021,2.156-.042,3.311-.042,1.134,0,2.226.021,3.108.042v-.714h-.021v-.02a2.056,2.056,0,0,1-1.825-1.44l0-4.209H270.7l3.744,6.388c1.185-.021,1.075-.043,2.155-.043,1.1,0,1.1.022,2.175.043v-.72Zm-9.329-8.157v-.75c0-1.16.016-1.989.062-3.019,0,0,.84-.063,1.323-.063,1.785,0,3.13.84,3.13,2.751,0,1.785-.925,2.9-1.949,2.9A2.559,2.559,0,0,1,268.852,812.293Z" fill="#897c6e"/><path d="M209.992,820.45a4.035,4.035,0,0,1-1.955-1.361l-3.046-4.5a3.746,3.746,0,0,0,3.022-3.543c0-2.268-1.986-3.783-5.724-3.783-1.428,0-3.071.423-5.218.423-.336,0-.63,0-.966-.021v.714l.966.063c.924.084,1.008.231,1.008,1.785v8.442c0,1.575-.084,1.722-1.008,1.785l-.98.063v.714c.882-.021,2.156-.042,3.311-.042,1.134,0,2.226.021,3.108.042v-.714h-.021v-.02a2.056,2.056,0,0,1-1.825-1.44l0-4.209h1.851l3.744,6.388c1.185-.021,1.075-.043,2.155-.043,1.1,0,1.1.022,2.175.043v-.72Zm-9.328-8.157v-.75c0-1.16.016-1.989.062-3.019,0,0,.84-.063,1.323-.063,1.785,0,3.13.84,3.13,2.751,0,1.785-.925,2.9-1.949,2.9A2.558,2.558,0,0,1,200.664,812.293Z" fill="#897c6e"/><path d="M135.859,820.45a4.035,4.035,0,0,1-1.955-1.361l-3.046-4.5a3.745,3.745,0,0,0,3.021-3.543c0-2.268-1.985-3.783-5.723-3.783-1.429,0-3.071.423-5.218.423-.336,0-.63,0-.966-.021v.714l.966.063c.924.084,1.008.231,1.008,1.785v8.442c0,1.575-.084,1.722-1.008,1.785l-.98.063v.714c.882-.021,2.156-.042,3.311-.042,1.134,0,2.226.021,3.108.042v-.714h-.021v-.02a2.056,2.056,0,0,1-1.825-1.44l0-4.209h1.851l3.744,6.388c1.185-.021,1.075-.043,2.154-.043,1.1,0,1.1.022,2.176.043v-.72Zm-9.329-8.157v-.75c0-1.16.016-1.989.062-3.019,0,0,.84-.063,1.323-.063,1.785,0,3.129.84,3.129,2.751,0,1.785-.924,2.9-1.948,2.9A2.559,2.559,0,0,1,126.53,812.293Z" fill="#897c6e"/><path d="M164.747,807.194a10.65,10.65,0,0,0-1.293.1c-1.23.106-2.868.38-4.6.38-.335,0-.63,0-.965-.021v.714l.965.063c.924.084,1.009.231,1.009,1.785v8.442c0,1.575-.085,1.722-1.009,1.785l-.98.063v.714c.882-.021,2.39-.042,3.545-.042,1.134,0,2.226.021,3.108.042v-.013l.184.013c4.547,0,8.119-2.8,8.119-7.1C172.825,809.947,169.4,807.194,164.747,807.194Zm.528,13.073a3.186,3.186,0,0,1-2.6-1.935l0-9.525a16.668,16.668,0,0,1,1.782-.107c2.933,0,4.714,1.933,4.714,5.836C169.17,817.879,167.654,820.267,165.275,820.267Z" fill="#897c6e"/><path d="M296.627,820.45a4.029,4.029,0,0,1-1.954-1.361l-3.047-4.5a3.745,3.745,0,0,0,3.022-3.543c0-2.268-1.986-3.783-5.724-3.783-1.428,0-3.071.423-5.218.423-.335,0-.63,0-.965-.021v.714l.965.063c.924.084,1.009.231,1.009,1.785v8.442c0,1.575-.085,1.722-1.009,1.785l-.98.063v.714c.882-.021,2.157-.042,3.312-.042,1.134,0,2.226.021,3.108.042v-.714h-.021v-.02a2.055,2.055,0,0,1-1.825-1.44l0-4.209h1.851l3.744,6.388c1.185-.021,1.076-.043,2.155-.043,1.1,0,1.1.022,2.175.043v-.72Zm-9.328-8.157v-.75c0-1.16.015-1.989.061-3.019,0,0,.841-.063,1.324-.063,1.785,0,3.129.84,3.129,2.751,0,1.785-.925,2.9-1.949,2.9A2.558,2.558,0,0,1,287.3,812.293Z" fill="#897c6e"/><path d="M85.587,814.118c0,4.109-3.811,7.132-7.728,7.132s-7.729-2.937-7.729-7.047,3.812-7.132,7.729-7.132S85.587,810.01,85.587,814.118Zm-3.32.107c0-3.534-1.9-6.3-4.408-6.3-2.463,0-4.408,2.643-4.408,6.177s2.051,6.3,4.408,6.3C80.259,820.4,82.267,817.759,82.267,814.225Z" fill="#897c6e"/><path d="M192.391,814.118c0,4.109-3.812,7.132-7.729,7.132s-7.729-2.937-7.729-7.047,3.812-7.132,7.729-7.132S192.391,810.01,192.391,814.118Zm-3.321.107c0-3.534-1.9-6.3-4.408-6.3-2.463,0-4.408,2.643-4.408,6.177s2.051,6.3,4.408,6.3C187.062,820.4,189.07,817.759,189.07,814.225Z" fill="#897c6e"/><path d="M90.164,819.891l-.309-3.4.618-.1c.7,2.492,2.265,4.072,3.913,4.072a2.319,2.319,0,0,0,2.306-2.375c0-2.883-6.219-2.773-6.219-6.958,0-2.41,2.2-4.058,4.778-4.058a5.683,5.683,0,0,1,3.46,1.092l.309,2.966-.6.061c-.556-1.956-1.668-3.322-3.212-3.322a2.223,2.223,0,0,0-2.1,2.264c0,2.719,6.364,2.823,6.364,6.917,0,2.554-2.327,4.2-5.108,4.2A6.923,6.923,0,0,1,90.164,819.891Z" fill="#897c6e"/><path d="M117.58,807.3a25.367,25.367,0,0,1-3.946.208h-5.565a25.343,25.343,0,0,1-3.945-.208c-.062,1.557-.2,3.477-.344,4.661l.6.1c.913-2.305,1.495-3.571,3.26-3.571h1.715s.042,1.329.042,3.654l.022,6.353c0,1.509-.332,1.891-1.24,1.952l-1.1.063v.714c.882-.021,2.39-.042,3.545-.042,1.134,0,2.969.021,3.851.042l-.009-.755a2.8,2.8,0,0,1-2.153-1.653l0-6.674c.015-1.914.042-3.654.042-3.654h1.716c1.764,0,2.366,1.266,3.28,3.571l.582-.1C117.8,810.777,117.642,808.857,117.58,807.3Z" fill="#897c6e"/></g></svg>